<mxfile host="Electron" modified="2023-12-18T15:51:56.419Z" agent="Mozilla/5.0 (Macintosh; Intel Mac OS X 10_15_7) AppleWebKit/537.36 (KHTML, like Gecko) draw.io/22.1.2 Chrome/114.0.5735.289 Electron/25.9.4 Safari/537.36" etag="ptzqZ6o7RcJlv8Rocl_G" version="22.1.2" type="device">
  <diagram id="C5RBs43oDa-KdzZeNtuy" name="Page-1">
    <mxGraphModel dx="1368" dy="887" grid="1" gridSize="10" guides="1" tooltips="1" connect="1" arrows="1" fold="1" page="1" pageScale="1" pageWidth="827" pageHeight="1169" math="0" shadow="0">
      <root>
        <mxCell id="WIyWlLk6GJQsqaUBKTNV-0" />
        <mxCell id="WIyWlLk6GJQsqaUBKTNV-1" parent="WIyWlLk6GJQsqaUBKTNV-0" />
        <mxCell id="WIyWlLk6GJQsqaUBKTNV-2" value="" style="rounded=0;html=1;jettySize=auto;orthogonalLoop=1;fontSize=11;endArrow=block;endFill=0;endSize=8;strokeWidth=1;shadow=0;labelBackgroundColor=none;edgeStyle=orthogonalEdgeStyle;" parent="WIyWlLk6GJQsqaUBKTNV-1" source="WIyWlLk6GJQsqaUBKTNV-3" target="WIyWlLk6GJQsqaUBKTNV-6" edge="1">
          <mxGeometry relative="1" as="geometry" />
        </mxCell>
        <mxCell id="WIyWlLk6GJQsqaUBKTNV-3" value="SETUP" style="rounded=1;whiteSpace=wrap;html=1;fontSize=12;glass=0;strokeWidth=1;shadow=0;" parent="WIyWlLk6GJQsqaUBKTNV-1" vertex="1">
          <mxGeometry x="15" y="30" width="120" height="40" as="geometry" />
        </mxCell>
        <mxCell id="WIyWlLk6GJQsqaUBKTNV-4" value="" style="rounded=0;html=1;jettySize=auto;orthogonalLoop=1;fontSize=11;endArrow=block;endFill=0;endSize=8;strokeWidth=1;shadow=0;labelBackgroundColor=none;edgeStyle=orthogonalEdgeStyle;" parent="WIyWlLk6GJQsqaUBKTNV-1" source="WIyWlLk6GJQsqaUBKTNV-6" target="WIyWlLk6GJQsqaUBKTNV-10" edge="1">
          <mxGeometry y="20" relative="1" as="geometry">
            <mxPoint as="offset" />
          </mxGeometry>
        </mxCell>
        <mxCell id="OVbXZq8pW4hZ0N6PtB5D-39" style="edgeStyle=orthogonalEdgeStyle;rounded=0;orthogonalLoop=1;jettySize=auto;html=1;exitX=1;exitY=0.5;exitDx=0;exitDy=0;entryX=0;entryY=0.5;entryDx=0;entryDy=0;" edge="1" parent="WIyWlLk6GJQsqaUBKTNV-1" source="WIyWlLk6GJQsqaUBKTNV-6" target="WIyWlLk6GJQsqaUBKTNV-7">
          <mxGeometry relative="1" as="geometry" />
        </mxCell>
        <mxCell id="OVbXZq8pW4hZ0N6PtB5D-40" value="yes" style="edgeLabel;html=1;align=center;verticalAlign=middle;resizable=0;points=[];" vertex="1" connectable="0" parent="OVbXZq8pW4hZ0N6PtB5D-39">
          <mxGeometry x="-0.3886" relative="1" as="geometry">
            <mxPoint as="offset" />
          </mxGeometry>
        </mxCell>
        <mxCell id="WIyWlLk6GJQsqaUBKTNV-6" value="HAS I2C HARDWARE" style="rhombus;whiteSpace=wrap;html=1;shadow=0;fontFamily=Helvetica;fontSize=12;align=center;strokeWidth=1;spacing=6;spacingTop=-4;" parent="WIyWlLk6GJQsqaUBKTNV-1" vertex="1">
          <mxGeometry x="25" y="90" width="100" height="80" as="geometry" />
        </mxCell>
        <mxCell id="OVbXZq8pW4hZ0N6PtB5D-1" style="edgeStyle=orthogonalEdgeStyle;rounded=0;orthogonalLoop=1;jettySize=auto;html=1;exitX=0.5;exitY=1;exitDx=0;exitDy=0;entryX=0.5;entryY=0;entryDx=0;entryDy=0;" edge="1" parent="WIyWlLk6GJQsqaUBKTNV-1" source="WIyWlLk6GJQsqaUBKTNV-7" target="WIyWlLk6GJQsqaUBKTNV-10">
          <mxGeometry relative="1" as="geometry" />
        </mxCell>
        <mxCell id="WIyWlLk6GJQsqaUBKTNV-7" value="SCAN FOR I2C DEVICES" style="rounded=1;whiteSpace=wrap;html=1;fontSize=12;glass=0;strokeWidth=1;shadow=0;" parent="WIyWlLk6GJQsqaUBKTNV-1" vertex="1">
          <mxGeometry x="160" y="110" width="120" height="40" as="geometry" />
        </mxCell>
        <mxCell id="OVbXZq8pW4hZ0N6PtB5D-5" style="edgeStyle=orthogonalEdgeStyle;rounded=0;orthogonalLoop=1;jettySize=auto;html=1;exitX=0.5;exitY=1;exitDx=0;exitDy=0;entryX=0.5;entryY=0;entryDx=0;entryDy=0;" edge="1" parent="WIyWlLk6GJQsqaUBKTNV-1" source="WIyWlLk6GJQsqaUBKTNV-10" target="WIyWlLk6GJQsqaUBKTNV-11">
          <mxGeometry relative="1" as="geometry" />
        </mxCell>
        <mxCell id="OVbXZq8pW4hZ0N6PtB5D-37" style="edgeStyle=orthogonalEdgeStyle;rounded=0;orthogonalLoop=1;jettySize=auto;html=1;exitX=1;exitY=0.5;exitDx=0;exitDy=0;entryX=0;entryY=0.5;entryDx=0;entryDy=0;" edge="1" parent="WIyWlLk6GJQsqaUBKTNV-1" source="WIyWlLk6GJQsqaUBKTNV-10" target="WIyWlLk6GJQsqaUBKTNV-12">
          <mxGeometry relative="1" as="geometry" />
        </mxCell>
        <mxCell id="OVbXZq8pW4hZ0N6PtB5D-38" value="yes" style="edgeLabel;html=1;align=center;verticalAlign=middle;resizable=0;points=[];" vertex="1" connectable="0" parent="OVbXZq8pW4hZ0N6PtB5D-37">
          <mxGeometry x="0.0915" relative="1" as="geometry">
            <mxPoint as="offset" />
          </mxGeometry>
        </mxCell>
        <mxCell id="WIyWlLk6GJQsqaUBKTNV-10" value="HAS UART&lt;br&gt;HARDWARE" style="rhombus;whiteSpace=wrap;html=1;shadow=0;fontFamily=Helvetica;fontSize=12;align=center;strokeWidth=1;spacing=6;spacingTop=-4;" parent="WIyWlLk6GJQsqaUBKTNV-1" vertex="1">
          <mxGeometry x="25" y="190" width="100" height="80" as="geometry" />
        </mxCell>
        <mxCell id="OVbXZq8pW4hZ0N6PtB5D-9" style="edgeStyle=orthogonalEdgeStyle;rounded=0;orthogonalLoop=1;jettySize=auto;html=1;exitX=0.5;exitY=1;exitDx=0;exitDy=0;entryX=0.5;entryY=0;entryDx=0;entryDy=0;" edge="1" parent="WIyWlLk6GJQsqaUBKTNV-1" source="WIyWlLk6GJQsqaUBKTNV-11" target="OVbXZq8pW4hZ0N6PtB5D-8">
          <mxGeometry relative="1" as="geometry" />
        </mxCell>
        <mxCell id="WIyWlLk6GJQsqaUBKTNV-11" value="CREATE&amp;nbsp;RESPECTIVE SENSOR CLASS FOR ALL FOUND SENSORS" style="rounded=1;whiteSpace=wrap;html=1;fontSize=12;glass=0;strokeWidth=1;shadow=0;" parent="WIyWlLk6GJQsqaUBKTNV-1" vertex="1">
          <mxGeometry y="290" width="150" height="60" as="geometry" />
        </mxCell>
        <mxCell id="OVbXZq8pW4hZ0N6PtB5D-3" style="edgeStyle=orthogonalEdgeStyle;rounded=0;orthogonalLoop=1;jettySize=auto;html=1;exitX=0.5;exitY=1;exitDx=0;exitDy=0;entryX=0.5;entryY=0;entryDx=0;entryDy=0;" edge="1" parent="WIyWlLk6GJQsqaUBKTNV-1" source="WIyWlLk6GJQsqaUBKTNV-12" target="WIyWlLk6GJQsqaUBKTNV-11">
          <mxGeometry relative="1" as="geometry">
            <Array as="points">
              <mxPoint x="220" y="270" />
              <mxPoint x="75" y="270" />
            </Array>
          </mxGeometry>
        </mxCell>
        <mxCell id="WIyWlLk6GJQsqaUBKTNV-12" value="CHECK FOR INCOMMING PACKETS" style="rounded=1;whiteSpace=wrap;html=1;fontSize=12;glass=0;strokeWidth=1;shadow=0;" parent="WIyWlLk6GJQsqaUBKTNV-1" vertex="1">
          <mxGeometry x="160" y="205" width="120" height="50" as="geometry" />
        </mxCell>
        <mxCell id="OVbXZq8pW4hZ0N6PtB5D-25" style="edgeStyle=orthogonalEdgeStyle;rounded=0;orthogonalLoop=1;jettySize=auto;html=1;exitX=0.5;exitY=1;exitDx=0;exitDy=0;entryX=0.5;entryY=0;entryDx=0;entryDy=0;" edge="1" parent="WIyWlLk6GJQsqaUBKTNV-1" source="OVbXZq8pW4hZ0N6PtB5D-6" target="OVbXZq8pW4hZ0N6PtB5D-7">
          <mxGeometry relative="1" as="geometry" />
        </mxCell>
        <mxCell id="OVbXZq8pW4hZ0N6PtB5D-6" value="LOOP" style="rounded=1;whiteSpace=wrap;html=1;fontSize=12;glass=0;strokeWidth=1;shadow=0;" vertex="1" parent="WIyWlLk6GJQsqaUBKTNV-1">
          <mxGeometry x="335" y="10" width="120" height="40" as="geometry" />
        </mxCell>
        <mxCell id="OVbXZq8pW4hZ0N6PtB5D-23" style="edgeStyle=orthogonalEdgeStyle;rounded=0;orthogonalLoop=1;jettySize=auto;html=1;exitX=0.5;exitY=1;exitDx=0;exitDy=0;entryX=0.5;entryY=0;entryDx=0;entryDy=0;" edge="1" parent="WIyWlLk6GJQsqaUBKTNV-1" source="OVbXZq8pW4hZ0N6PtB5D-7" target="OVbXZq8pW4hZ0N6PtB5D-16">
          <mxGeometry relative="1" as="geometry" />
        </mxCell>
        <mxCell id="OVbXZq8pW4hZ0N6PtB5D-48" style="edgeStyle=orthogonalEdgeStyle;rounded=0;orthogonalLoop=1;jettySize=auto;html=1;exitX=1;exitY=0.5;exitDx=0;exitDy=0;entryX=0;entryY=0.5;entryDx=0;entryDy=0;" edge="1" parent="WIyWlLk6GJQsqaUBKTNV-1" source="OVbXZq8pW4hZ0N6PtB5D-7" target="OVbXZq8pW4hZ0N6PtB5D-47">
          <mxGeometry relative="1" as="geometry" />
        </mxCell>
        <mxCell id="OVbXZq8pW4hZ0N6PtB5D-49" value="yes" style="edgeLabel;html=1;align=center;verticalAlign=middle;resizable=0;points=[];" vertex="1" connectable="0" parent="OVbXZq8pW4hZ0N6PtB5D-48">
          <mxGeometry x="0.3415" y="-1" relative="1" as="geometry">
            <mxPoint as="offset" />
          </mxGeometry>
        </mxCell>
        <mxCell id="OVbXZq8pW4hZ0N6PtB5D-7" value="GOT USER COMMAND" style="rhombus;whiteSpace=wrap;html=1;shadow=0;fontFamily=Helvetica;fontSize=12;align=center;strokeWidth=1;spacing=6;spacingTop=-4;" vertex="1" parent="WIyWlLk6GJQsqaUBKTNV-1">
          <mxGeometry x="340" y="70" width="110" height="90" as="geometry" />
        </mxCell>
        <mxCell id="OVbXZq8pW4hZ0N6PtB5D-69" style="edgeStyle=orthogonalEdgeStyle;rounded=0;orthogonalLoop=1;jettySize=auto;html=1;exitX=0.5;exitY=1;exitDx=0;exitDy=0;entryX=0.5;entryY=0;entryDx=0;entryDy=0;" edge="1" parent="WIyWlLk6GJQsqaUBKTNV-1" source="OVbXZq8pW4hZ0N6PtB5D-8" target="OVbXZq8pW4hZ0N6PtB5D-68">
          <mxGeometry relative="1" as="geometry" />
        </mxCell>
        <mxCell id="OVbXZq8pW4hZ0N6PtB5D-8" value="REGISTER IRQ ON SYNC-IN PIN" style="rounded=1;whiteSpace=wrap;html=1;fontSize=12;glass=0;strokeWidth=1;shadow=0;" vertex="1" parent="WIyWlLk6GJQsqaUBKTNV-1">
          <mxGeometry y="370" width="150" height="40" as="geometry" />
        </mxCell>
        <mxCell id="OVbXZq8pW4hZ0N6PtB5D-14" style="edgeStyle=orthogonalEdgeStyle;rounded=0;orthogonalLoop=1;jettySize=auto;html=1;exitX=0.5;exitY=1;exitDx=0;exitDy=0;entryX=0;entryY=0.5;entryDx=0;entryDy=0;" edge="1" parent="WIyWlLk6GJQsqaUBKTNV-1" source="OVbXZq8pW4hZ0N6PtB5D-12" target="OVbXZq8pW4hZ0N6PtB5D-6">
          <mxGeometry relative="1" as="geometry">
            <Array as="points">
              <mxPoint x="75" y="560" />
              <mxPoint x="300" y="560" />
              <mxPoint x="300" y="30" />
            </Array>
          </mxGeometry>
        </mxCell>
        <mxCell id="OVbXZq8pW4hZ0N6PtB5D-12" value="CONFIGURE USER USB HOST COMMUNICATION" style="rounded=1;whiteSpace=wrap;html=1;fontSize=12;glass=0;strokeWidth=1;shadow=0;" vertex="1" parent="WIyWlLk6GJQsqaUBKTNV-1">
          <mxGeometry y="490" width="150" height="60" as="geometry" />
        </mxCell>
        <mxCell id="OVbXZq8pW4hZ0N6PtB5D-22" style="edgeStyle=orthogonalEdgeStyle;rounded=0;orthogonalLoop=1;jettySize=auto;html=1;exitX=0.5;exitY=1;exitDx=0;exitDy=0;entryX=0.5;entryY=0;entryDx=0;entryDy=0;" edge="1" parent="WIyWlLk6GJQsqaUBKTNV-1" source="OVbXZq8pW4hZ0N6PtB5D-16" target="OVbXZq8pW4hZ0N6PtB5D-17">
          <mxGeometry relative="1" as="geometry" />
        </mxCell>
        <mxCell id="OVbXZq8pW4hZ0N6PtB5D-31" style="edgeStyle=orthogonalEdgeStyle;rounded=0;orthogonalLoop=1;jettySize=auto;html=1;exitX=1;exitY=0.5;exitDx=0;exitDy=0;entryX=0;entryY=0.5;entryDx=0;entryDy=0;" edge="1" parent="WIyWlLk6GJQsqaUBKTNV-1" source="OVbXZq8pW4hZ0N6PtB5D-16" target="OVbXZq8pW4hZ0N6PtB5D-30">
          <mxGeometry relative="1" as="geometry" />
        </mxCell>
        <mxCell id="OVbXZq8pW4hZ0N6PtB5D-35" value="yes" style="edgeLabel;html=1;align=center;verticalAlign=middle;resizable=0;points=[];" vertex="1" connectable="0" parent="OVbXZq8pW4hZ0N6PtB5D-31">
          <mxGeometry x="-0.0667" y="-3" relative="1" as="geometry">
            <mxPoint as="offset" />
          </mxGeometry>
        </mxCell>
        <mxCell id="OVbXZq8pW4hZ0N6PtB5D-16" value="IS IRQ SYNC&lt;br&gt;IMPULSE SET" style="rhombus;whiteSpace=wrap;html=1;shadow=0;fontFamily=Helvetica;fontSize=12;align=center;strokeWidth=1;spacing=6;spacingTop=-4;" vertex="1" parent="WIyWlLk6GJQsqaUBKTNV-1">
          <mxGeometry x="340" y="250" width="110" height="90" as="geometry" />
        </mxCell>
        <mxCell id="OVbXZq8pW4hZ0N6PtB5D-21" style="edgeStyle=orthogonalEdgeStyle;rounded=0;orthogonalLoop=1;jettySize=auto;html=1;exitX=0.5;exitY=1;exitDx=0;exitDy=0;" edge="1" parent="WIyWlLk6GJQsqaUBKTNV-1" source="OVbXZq8pW4hZ0N6PtB5D-17">
          <mxGeometry relative="1" as="geometry">
            <mxPoint x="395" y="490" as="targetPoint" />
          </mxGeometry>
        </mxCell>
        <mxCell id="OVbXZq8pW4hZ0N6PtB5D-17" value="GOT SENSOR DATA" style="rhombus;whiteSpace=wrap;html=1;shadow=0;fontFamily=Helvetica;fontSize=12;align=center;strokeWidth=1;spacing=6;spacingTop=-4;" vertex="1" parent="WIyWlLk6GJQsqaUBKTNV-1">
          <mxGeometry x="340" y="380" width="110" height="90" as="geometry" />
        </mxCell>
        <mxCell id="OVbXZq8pW4hZ0N6PtB5D-20" style="edgeStyle=orthogonalEdgeStyle;rounded=0;orthogonalLoop=1;jettySize=auto;html=1;exitX=0.5;exitY=1;exitDx=0;exitDy=0;entryX=0;entryY=0.5;entryDx=0;entryDy=0;" edge="1" parent="WIyWlLk6GJQsqaUBKTNV-1">
          <mxGeometry relative="1" as="geometry">
            <mxPoint x="385" y="540" as="sourcePoint" />
            <mxPoint x="325" y="30" as="targetPoint" />
            <Array as="points">
              <mxPoint x="390" y="540" />
              <mxPoint x="390" y="560" />
              <mxPoint x="300" y="560" />
              <mxPoint x="300" y="30" />
            </Array>
          </mxGeometry>
        </mxCell>
        <mxCell id="OVbXZq8pW4hZ0N6PtB5D-66" value="Text" style="edgeLabel;html=1;align=center;verticalAlign=middle;resizable=0;points=[];" vertex="1" connectable="0" parent="OVbXZq8pW4hZ0N6PtB5D-20">
          <mxGeometry x="-0.996" relative="1" as="geometry">
            <mxPoint as="offset" />
          </mxGeometry>
        </mxCell>
        <mxCell id="OVbXZq8pW4hZ0N6PtB5D-19" value="OTHER SYSTEM TASKS" style="rounded=1;whiteSpace=wrap;html=1;fontSize=12;glass=0;strokeWidth=1;shadow=0;" vertex="1" parent="WIyWlLk6GJQsqaUBKTNV-1">
          <mxGeometry x="320" y="490" width="150" height="60" as="geometry" />
        </mxCell>
        <mxCell id="OVbXZq8pW4hZ0N6PtB5D-67" style="edgeStyle=orthogonalEdgeStyle;rounded=0;orthogonalLoop=1;jettySize=auto;html=1;exitX=0.5;exitY=1;exitDx=0;exitDy=0;entryX=0.5;entryY=0;entryDx=0;entryDy=0;" edge="1" parent="WIyWlLk6GJQsqaUBKTNV-1" source="OVbXZq8pW4hZ0N6PtB5D-27" target="OVbXZq8pW4hZ0N6PtB5D-19">
          <mxGeometry relative="1" as="geometry">
            <Array as="points">
              <mxPoint x="580" y="470" />
              <mxPoint x="395" y="470" />
            </Array>
          </mxGeometry>
        </mxCell>
        <mxCell id="OVbXZq8pW4hZ0N6PtB5D-27" value="UPDATE RINGBUFFER DATA" style="rounded=1;whiteSpace=wrap;html=1;fontSize=12;glass=0;strokeWidth=1;shadow=0;" vertex="1" parent="WIyWlLk6GJQsqaUBKTNV-1">
          <mxGeometry x="520" y="400" width="120" height="40" as="geometry" />
        </mxCell>
        <mxCell id="OVbXZq8pW4hZ0N6PtB5D-34" style="edgeStyle=orthogonalEdgeStyle;rounded=0;orthogonalLoop=1;jettySize=auto;html=1;exitX=0.5;exitY=1;exitDx=0;exitDy=0;entryX=0.5;entryY=0;entryDx=0;entryDy=0;" edge="1" parent="WIyWlLk6GJQsqaUBKTNV-1" source="OVbXZq8pW4hZ0N6PtB5D-30" target="OVbXZq8pW4hZ0N6PtB5D-32">
          <mxGeometry relative="1" as="geometry" />
        </mxCell>
        <mxCell id="OVbXZq8pW4hZ0N6PtB5D-30" value="UPDATE RINGBUFFER START INDEX" style="rounded=1;whiteSpace=wrap;html=1;fontSize=12;glass=0;strokeWidth=1;shadow=0;" vertex="1" parent="WIyWlLk6GJQsqaUBKTNV-1">
          <mxGeometry x="520" y="275" width="120" height="40" as="geometry" />
        </mxCell>
        <mxCell id="OVbXZq8pW4hZ0N6PtB5D-44" style="edgeStyle=orthogonalEdgeStyle;rounded=0;orthogonalLoop=1;jettySize=auto;html=1;exitX=0;exitY=0.5;exitDx=0;exitDy=0;entryX=0.5;entryY=0;entryDx=0;entryDy=0;" edge="1" parent="WIyWlLk6GJQsqaUBKTNV-1" source="OVbXZq8pW4hZ0N6PtB5D-32" target="OVbXZq8pW4hZ0N6PtB5D-17">
          <mxGeometry relative="1" as="geometry" />
        </mxCell>
        <mxCell id="OVbXZq8pW4hZ0N6PtB5D-32" value="INCREMENT EVENT COUNTER" style="rounded=1;whiteSpace=wrap;html=1;fontSize=12;glass=0;strokeWidth=1;shadow=0;" vertex="1" parent="WIyWlLk6GJQsqaUBKTNV-1">
          <mxGeometry x="520" y="340" width="120" height="40" as="geometry" />
        </mxCell>
        <mxCell id="OVbXZq8pW4hZ0N6PtB5D-42" style="edgeStyle=orthogonalEdgeStyle;rounded=0;orthogonalLoop=1;jettySize=auto;html=1;exitX=1;exitY=0.5;exitDx=0;exitDy=0;entryX=0;entryY=0.623;entryDx=0;entryDy=0;entryPerimeter=0;" edge="1" parent="WIyWlLk6GJQsqaUBKTNV-1" source="OVbXZq8pW4hZ0N6PtB5D-17" target="OVbXZq8pW4hZ0N6PtB5D-27">
          <mxGeometry relative="1" as="geometry" />
        </mxCell>
        <mxCell id="OVbXZq8pW4hZ0N6PtB5D-43" value="yes" style="edgeLabel;html=1;align=center;verticalAlign=middle;resizable=0;points=[];" vertex="1" connectable="0" parent="OVbXZq8pW4hZ0N6PtB5D-42">
          <mxGeometry x="0.0761" relative="1" as="geometry">
            <mxPoint as="offset" />
          </mxGeometry>
        </mxCell>
        <mxCell id="OVbXZq8pW4hZ0N6PtB5D-53" style="edgeStyle=orthogonalEdgeStyle;rounded=0;orthogonalLoop=1;jettySize=auto;html=1;exitX=0.5;exitY=1;exitDx=0;exitDy=0;entryX=0.5;entryY=0;entryDx=0;entryDy=0;" edge="1" parent="WIyWlLk6GJQsqaUBKTNV-1" source="OVbXZq8pW4hZ0N6PtB5D-47" target="OVbXZq8pW4hZ0N6PtB5D-50">
          <mxGeometry relative="1" as="geometry" />
        </mxCell>
        <mxCell id="OVbXZq8pW4hZ0N6PtB5D-54" value="no" style="edgeLabel;html=1;align=center;verticalAlign=middle;resizable=0;points=[];" vertex="1" connectable="0" parent="OVbXZq8pW4hZ0N6PtB5D-53">
          <mxGeometry x="-0.3867" y="-1" relative="1" as="geometry">
            <mxPoint as="offset" />
          </mxGeometry>
        </mxCell>
        <mxCell id="OVbXZq8pW4hZ0N6PtB5D-57" style="edgeStyle=orthogonalEdgeStyle;rounded=0;orthogonalLoop=1;jettySize=auto;html=1;exitX=1;exitY=0.5;exitDx=0;exitDy=0;entryX=0;entryY=0.5;entryDx=0;entryDy=0;" edge="1" parent="WIyWlLk6GJQsqaUBKTNV-1" source="OVbXZq8pW4hZ0N6PtB5D-47" target="OVbXZq8pW4hZ0N6PtB5D-56">
          <mxGeometry relative="1" as="geometry" />
        </mxCell>
        <mxCell id="OVbXZq8pW4hZ0N6PtB5D-58" value="yes" style="edgeLabel;html=1;align=center;verticalAlign=middle;resizable=0;points=[];" vertex="1" connectable="0" parent="OVbXZq8pW4hZ0N6PtB5D-57">
          <mxGeometry x="-0.1809" relative="1" as="geometry">
            <mxPoint as="offset" />
          </mxGeometry>
        </mxCell>
        <mxCell id="OVbXZq8pW4hZ0N6PtB5D-47" value="IS READOUT REQUEST" style="rhombus;whiteSpace=wrap;html=1;shadow=0;fontFamily=Helvetica;fontSize=12;align=center;strokeWidth=1;spacing=6;spacingTop=-4;" vertex="1" parent="WIyWlLk6GJQsqaUBKTNV-1">
          <mxGeometry x="530" y="75" width="100" height="80" as="geometry" />
        </mxCell>
        <mxCell id="OVbXZq8pW4hZ0N6PtB5D-55" style="edgeStyle=orthogonalEdgeStyle;rounded=0;orthogonalLoop=1;jettySize=auto;html=1;exitX=0;exitY=0.5;exitDx=0;exitDy=0;entryX=0.5;entryY=0;entryDx=0;entryDy=0;" edge="1" parent="WIyWlLk6GJQsqaUBKTNV-1" source="OVbXZq8pW4hZ0N6PtB5D-50" target="OVbXZq8pW4hZ0N6PtB5D-16">
          <mxGeometry relative="1" as="geometry">
            <Array as="points">
              <mxPoint x="395" y="200" />
            </Array>
          </mxGeometry>
        </mxCell>
        <mxCell id="OVbXZq8pW4hZ0N6PtB5D-50" value="PROCESS COMMAND" style="rounded=1;whiteSpace=wrap;html=1;fontSize=12;glass=0;strokeWidth=1;shadow=0;" vertex="1" parent="WIyWlLk6GJQsqaUBKTNV-1">
          <mxGeometry x="520" y="180" width="120" height="40" as="geometry" />
        </mxCell>
        <mxCell id="OVbXZq8pW4hZ0N6PtB5D-60" style="edgeStyle=orthogonalEdgeStyle;rounded=0;orthogonalLoop=1;jettySize=auto;html=1;exitX=0.5;exitY=1;exitDx=0;exitDy=0;entryX=0.5;entryY=0;entryDx=0;entryDy=0;" edge="1" parent="WIyWlLk6GJQsqaUBKTNV-1" source="OVbXZq8pW4hZ0N6PtB5D-56" target="OVbXZq8pW4hZ0N6PtB5D-59">
          <mxGeometry relative="1" as="geometry" />
        </mxCell>
        <mxCell id="OVbXZq8pW4hZ0N6PtB5D-56" value="CALCULATE AVERAGE USING CURRENT START INDEX" style="rounded=1;whiteSpace=wrap;html=1;fontSize=12;glass=0;strokeWidth=1;shadow=0;" vertex="1" parent="WIyWlLk6GJQsqaUBKTNV-1">
          <mxGeometry x="670" y="87.5" width="120" height="55" as="geometry" />
        </mxCell>
        <mxCell id="OVbXZq8pW4hZ0N6PtB5D-62" style="edgeStyle=orthogonalEdgeStyle;rounded=0;orthogonalLoop=1;jettySize=auto;html=1;exitX=0.5;exitY=1;exitDx=0;exitDy=0;entryX=0.5;entryY=0;entryDx=0;entryDy=0;" edge="1" parent="WIyWlLk6GJQsqaUBKTNV-1" source="OVbXZq8pW4hZ0N6PtB5D-59" target="OVbXZq8pW4hZ0N6PtB5D-16">
          <mxGeometry relative="1" as="geometry">
            <Array as="points">
              <mxPoint x="730" y="230" />
              <mxPoint x="395" y="230" />
            </Array>
          </mxGeometry>
        </mxCell>
        <mxCell id="OVbXZq8pW4hZ0N6PtB5D-59" value="SEND RESPONSE OVER USB" style="rounded=1;whiteSpace=wrap;html=1;fontSize=12;glass=0;strokeWidth=1;shadow=0;" vertex="1" parent="WIyWlLk6GJQsqaUBKTNV-1">
          <mxGeometry x="670" y="180" width="120" height="40" as="geometry" />
        </mxCell>
        <mxCell id="OVbXZq8pW4hZ0N6PtB5D-70" style="edgeStyle=orthogonalEdgeStyle;rounded=0;orthogonalLoop=1;jettySize=auto;html=1;exitX=0.5;exitY=1;exitDx=0;exitDy=0;entryX=0.5;entryY=0;entryDx=0;entryDy=0;" edge="1" parent="WIyWlLk6GJQsqaUBKTNV-1" source="OVbXZq8pW4hZ0N6PtB5D-68" target="OVbXZq8pW4hZ0N6PtB5D-12">
          <mxGeometry relative="1" as="geometry" />
        </mxCell>
        <mxCell id="OVbXZq8pW4hZ0N6PtB5D-68" value="REGISTER READOUT&lt;br&gt;TIMER INTERVAl" style="rounded=1;whiteSpace=wrap;html=1;fontSize=12;glass=0;strokeWidth=1;shadow=0;" vertex="1" parent="WIyWlLk6GJQsqaUBKTNV-1">
          <mxGeometry y="430" width="150" height="40" as="geometry" />
        </mxCell>
      </root>
    </mxGraphModel>
  </diagram>
</mxfile>
